HIERARCHY
ROOT mixamorig:Hips
{
  OFFSET 0.000000 0.000000 0.000000
  CHANNELS 6 Xposition Yposition Zposition Xrotation Yrotation Zrotation
  JOINT mixamorig:Spine
  {
    OFFSET 0.384862 23.362435 -6.545746
    CHANNELS 3 Xrotation Yrotation Zrotation
    JOINT mixamorig:Spine2
    {
      OFFSET 0.384862 23.362435 -6.545746
      CHANNELS 3 Xrotation Yrotation Zrotation
      JOINT mixamorig:Neck
      {
        OFFSET 0.000000 3.494450 0.000000
        CHANNELS 3 Xrotation Yrotation Zrotation
        JOINT mixamorig:Head
        {
          OFFSET 0.000000 3.104519 0.000000
          CHANNELS 3 Xrotation Yrotation Zrotation
          End Site
          {
            OFFSET 0.000000 0.931356 0.000000
          }
        }
      }
      JOINT mixamorig:LeftShoulder
      {
        OFFSET 16.753096 1.874518 -2.350806
        CHANNELS 3 Xrotation Yrotation Zrotation
        JOINT mixamorig:LeftArm
        {
          OFFSET 9.215470 -17.927143 -6.750691
          CHANNELS 3 Xrotation Yrotation Zrotation
          JOINT mixamorig:LeftForeArm
          {
            OFFSET -8.631796 -1.807562 -13.626102
            CHANNELS 3 Xrotation Yrotation Zrotation
            JOINT mixamorig:LeftHand
            {
              OFFSET -3.581741 1.574515 -2.219805
              CHANNELS 3 Xrotation Yrotation Zrotation
              End Site
              {
                OFFSET -1.074522 0.472355 -0.665942
              }
            }
          }
        }
      }
      JOINT mixamorig:RightShoulder
      {
        OFFSET -16.753096 1.874518 2.350806
        CHANNELS 3 Xrotation Yrotation Zrotation
        JOINT mixamorig:RightArm
        {
          OFFSET -4.024878 -26.092607 -12.467419
          CHANNELS 3 Xrotation Yrotation Zrotation
          JOINT mixamorig:RightForeArm
          {
            OFFSET 6.746233 1.826222 -21.720462
            CHANNELS 3 Xrotation Yrotation Zrotation
            JOINT mixamorig:RightHand
            {
              OFFSET 4.773503 3.298478 -5.155945
              CHANNELS 3 Xrotation Yrotation Zrotation
              End Site
              {
                OFFSET 1.432051 0.989543 -1.546783
              }
            }
          }
        }
      }
    }
  }
  JOINT mixamorig:LeftUpLeg
  {
    OFFSET 9.108096 0.180174 1.189578
    CHANNELS 3 Xrotation Yrotation Zrotation
    JOINT mixamorig:LeftLeg
    {
      OFFSET 8.006705 -41.225060 -10.059709
      CHANNELS 3 Xrotation Yrotation Zrotation
      JOINT mixamorig:LeftFoot
      {
        OFFSET 3.400898 -37.290034 11.365810
        CHANNELS 3 Xrotation Yrotation Zrotation
        JOINT mixamorig:LeftToeBase
        {
          OFFSET 2.883568 -4.422998 -6.372284
          CHANNELS 3 Xrotation Yrotation Zrotation
          End Site
          {
            OFFSET 0.865071 -1.326900 -1.911685
          }
        }
      }
    }
  }
  JOINT mixamorig:RightUpLeg
  {
    OFFSET -9.108096 -0.180174 -1.189578
    CHANNELS 3 Xrotation Yrotation Zrotation
    JOINT mixamorig:RightLeg
    {
      OFFSET -2.107032 -32.214779 1.747249
      CHANNELS 3 Xrotation Yrotation Zrotation
      JOINT mixamorig:RightFoot
      {
        OFFSET -3.136493 -41.782707 15.884636
        CHANNELS 3 Xrotation Yrotation Zrotation
        JOINT mixamorig:RightToeBase
        {
          OFFSET -9.692626 -1.266161 -8.277397
          CHANNELS 3 Xrotation Yrotation Zrotation
          End Site
          {
            OFFSET -2.907788 -0.379848 -2.483219
          }
        }
      }
    }
  }
}
MOTION
Frames: 11
Frame Time: 0.083333
0.104090 0.160537 0.194364 7.802083 -1.555636 -6.881801 0.000000 0.000000 0.000000 -15.671786 5.878449 7.860496 -3.560744 -7.032830 5.182006 -4.099846 -6.707315 5.601458 47.629812 -10.290637 39.403227 -36.567480 -16.749954 -39.087172 -20.491585 -3.405500 21.020976 0.000000 0.000000 0.000000 14.237522 -6.089865 -1.592203 0.929817 -2.807518 4.429751 -6.206278 -2.331615 -3.464279 0.000000 0.000000 0.000000 15.209254 4.491114 13.955840 -11.255287 4.205887 6.387801 15.738405 12.416716 -12.073063 0.000000 0.000000 0.000000 -17.569481 -2.247375 -8.866188 -6.468674 -1.962590 10.500263 4.767969 9.196601 17.652374 0.000000 0.000000 0.000000
0.107225 0.157739 0.194553 8.707899 -1.641131 -7.514525 -0.000000 0.000000 0.000000 -15.715145 3.500712 8.148017 -4.623020 -7.420236 4.807624 -5.118078 -7.041744 5.385045 37.877922 -5.441375 29.094069 -17.349834 -18.770793 -40.037838 -22.981972 1.646680 11.739843 0.000000 0.000000 0.000000 15.447062 -6.778239 3.030019 1.271345 -4.876387 -0.626708 -7.502592 2.571142 -1.710886 0.000000 0.000000 0.000000 14.860036 4.698509 14.743747 -11.407634 4.200523 5.994376 17.192105 11.585522 -10.238393 0.000000 0.000000 0.000000 -20.237085 -3.036617 -9.739933 -6.554837 -3.065495 9.763831 8.356227 9.547412 17.600885 0.000000 0.000000 0.000000
0.111007 0.150846 0.180922 9.527158 -1.655949 -7.808561 -0.000000 0.000000 0.000000 -15.752343 0.764621 8.101705 -5.117797 -6.836849 4.412032 -5.524097 -6.460839 5.010756 21.199205 -0.703747 13.739260 14.175308 -21.361567 -36.306866 -26.410606 2.010627 5.406540 0.000000 0.000000 0.000000 15.916058 -5.542294 4.691752 3.538129 -7.808700 -2.880502 -7.719697 5.427143 1.008224 0.000000 0.000000 0.000000 13.034473 4.619470 14.730227 -11.680405 4.268563 6.960906 13.273234 13.275802 -14.945941 0.000000 0.000000 0.000000 -17.318610 -2.409995 -9.673949 -11.230897 -4.938643 9.569613 9.375933 17.418799 15.736665 0.000000 0.000000 0.000000
0.115909 0.138619 0.168603 10.301517 -1.586319 -7.645993 -0.000000 0.000000 0.000000 -15.734056 0.892186 7.887314 -5.433346 -6.063860 4.237352 -5.768860 -5.682303 4.813607 10.769547 0.119470 3.247571 31.368195 -16.120066 -26.029759 -23.287009 5.892347 -6.131104 0.000000 0.000000 0.000000 15.500580 -5.385401 4.048036 6.544127 -9.946120 -1.963304 -7.422612 5.457375 3.115599 0.000000 0.000000 0.000000 11.387237 4.598904 13.798524 -11.728139 3.971705 8.337238 9.893798 16.491111 -20.298925 0.000000 0.000000 0.000000 -11.381136 -0.964523 -9.272953 -18.675805 -7.136768 9.753716 8.068445 24.987775 15.447805 0.000000 0.000000 0.000000
0.119247 0.126976 0.167384 10.997320 -1.357328 -6.575759 0.000000 0.000000 0.000000 -15.629569 5.483003 7.104638 -5.093866 -5.133344 5.195114 -5.470068 -4.680540 5.657991 9.067143 -3.450422 1.091340 29.880010 -14.002236 -21.540274 -20.531926 3.145902 -6.312710 0.000000 0.000000 0.000000 13.031821 -8.190721 2.388789 8.733834 -6.321093 1.893180 -7.700616 2.853807 3.078931 0.000000 0.000000 0.000000 9.726951 4.613111 11.126819 -12.611537 3.299722 10.562202 6.645424 17.942395 -25.261172 0.000000 0.000000 0.000000 -12.522553 -1.062502 -9.079229 -15.864743 -5.497599 9.529632 7.211801 23.107023 13.147502 0.000000 0.000000 0.000000
0.118994 0.122218 0.174859 11.692550 -1.141718 -5.503960 0.000000 0.000000 0.000000 -15.532992 10.131075 6.180292 -4.629997 -4.152787 6.017143 -4.997960 -3.665754 6.363524 7.495553 -7.109420 -1.123582 28.117715 -11.834647 -17.003262 -17.971065 0.045246 -6.333455 0.000000 0.000000 0.000000 10.648472 -11.140627 0.521512 10.703381 -2.660114 5.735675 -8.060786 0.411282 3.029464 0.000000 0.000000 0.000000 8.026951 4.669464 8.385106 -13.382502 2.605194 12.775120 3.008152 19.132365 -30.333944 0.000000 0.000000 0.000000 -13.658627 -1.093556 -8.918492 -12.958120 -4.014663 9.304519 6.205276 21.358642 10.884216 0.000000 0.000000 0.000000
0.113450 0.122832 0.189007 12.386286 -0.939646 -4.431859 0.000000 0.000000 0.000000 -15.442827 14.778782 5.131841 -4.095928 -3.188193 6.670033 -4.415646 -2.704386 6.910935 6.075612 -10.806829 -3.400140 26.060593 -9.625604 -12.442732 -15.660311 -3.394111 -6.175695 0.000000 0.000000 0.000000 8.374589 -14.186596 -1.568266 12.434252 0.983695 9.565495 -8.477269 -1.827679 2.984225 0.000000 0.000000 0.000000 6.291528 4.767885 5.580970 -14.040550 1.898057 14.977389 -0.913492 19.994327 -35.321804 0.000000 0.000000 0.000000 -14.785738 -1.059207 -8.787462 -9.971823 -2.698464 9.079981 5.062640 19.752833 8.657576 0.000000 0.000000 0.000000
0.103754 0.125047 0.202811 13.077613 -0.751208 -3.360714 0.000000 0.000000 0.000000 -15.357508 19.371017 3.982088 -3.533000 -2.302422 7.148080 -3.781144 -1.852575 7.302941 4.819951 -14.490684 -5.739495 23.694157 -7.388082 -7.888918 -13.649009 -7.141319 -5.832026 0.000000 0.000000 0.000000 6.225363 -17.275684 -3.887475 13.916026 4.568500 13.383024 -8.923658 -3.838890 2.959111 0.000000 0.000000 0.000000 4.525398 4.907924 2.723126 -14.587094 1.188653 17.170445 -4.986665 20.488121 -40.030377 0.000000 0.000000 0.000000 -15.900437 -0.961331 -8.682815 -6.924373 -1.557131 8.858115 3.800032 18.298016 6.469427 0.000000 0.000000 0.000000
0.092556 0.129846 0.211208 13.632174 -0.549975 -2.134672 0.000000 0.000000 0.000000 -15.274994 23.855164 2.686246 -2.897848 -1.593954 7.451483 -3.075932 -1.208316 7.542320 4.398230 -18.110675 -7.239890 20.278042 -5.312539 -3.936911 -11.786221 -10.875317 -5.373138 0.000000 0.000000 0.000000 4.203327 -20.599616 -5.952843 14.915399 8.206530 16.319890 -9.038810 -5.758207 3.050910 0.000000 0.000000 0.000000 2.735185 5.050209 -0.405879 -14.637969 0.538818 19.635750 -9.307684 20.981040 -44.836500 0.000000 0.000000 0.000000 -16.888783 -0.789635 -8.868101 -3.911599 -0.539876 8.873415 2.216973 17.152668 4.575504 0.000000 0.000000 0.000000
0.079740 0.135874 0.207940 13.483398 -0.252853 -0.318990 0.000000 0.000000 0.000000 -15.189309 28.313554 1.209784 -1.989720 -1.250251 7.618826 -2.136835 -0.977708 7.665420 7.246648 -21.578655 -4.918378 14.200165 -3.463844 -2.799063 -9.763397 -13.862143 -5.094804 0.000000 0.000000 0.000000 2.307397 -24.980534 -6.348093 14.719239 12.153176 15.580003 -7.649604 -7.539888 3.792728 0.000000 0.000000 0.000000 0.686401 4.962459 -4.410545 -12.551995 0.363217 23.398902 -14.426845 22.491289 -51.058788 0.000000 0.000000 0.000000 -17.874115 -0.520817 -10.119674 -0.541729 0.617811 9.709741 -0.415090 17.229771 3.823476 0.000000 0.000000 0.000000
0.065525 0.141759 0.199437 12.043674 0.185171 2.165789 0.000000 0.000000 0.000000 -15.100933 32.662749 -0.103002 -0.849427 -1.340464 7.906224 -1.025406 -1.213757 7.925238 15.106800 -24.547807 2.999171 6.219818 -0.349131 -6.545523 -7.859204 -15.841760 -4.949309 0.000000 0.000000 0.000000 0.585323 -30.770879 -4.146508 13.109561 16.280806 9.068268 -3.917435 -7.969702 6.155321 0.000000 0.000000 0.000000 -2.219053 4.268569 -9.238412 -6.678367 1.478586 29.183876 -20.131320 25.162287 -58.677156 0.000000 0.000000 0.000000 -19.780676 -0.158182 -12.588286 4.522031 2.081871 11.009653 -4.439657 19.787259 4.898340 0.000000 0.000000 0.000000
